<?xml version="1.0" encoding="utf-8" standalone="no"?>
<!DOCTYPE svg PUBLIC "-//W3C//DTD SVG 1.1//EN"
  "http://www.w3.org/Graphics/SVG/1.1/DTD/svg11.dtd">
<!-- Created with matplotlib (https://matplotlib.org/) -->
<svg height="360pt" version="1.1" viewBox="0 0 720 360" width="720pt" xmlns="http://www.w3.org/2000/svg" xmlns:xlink="http://www.w3.org/1999/xlink">
 <defs>
  <style type="text/css">
*{stroke-linecap:butt;stroke-linejoin:round;}
  </style>
 </defs>
 <g id="figure_1">
  <g id="patch_1">
   <path d="M 0 360 
L 720 360 
L 720 0 
L 0 0 
z
" style="fill:#ffffff;"/>
  </g>
  <g id="axes_1">
   <g id="patch_2">
    <path d="M 90 320.4 
L 648 320.4 
L 648 43.2 
L 90 43.2 
z
" style="fill:#ffffff;"/>
   </g>
   <g id="PathCollection_1">
    <defs>
     <path d="M 0 1.118034 
C 0.296506 1.118034 0.580908 1.000231 0.790569 0.790569 
C 1.000231 0.580908 1.118034 0.296506 1.118034 0 
C 1.118034 -0.296506 1.000231 -0.580908 0.790569 -0.790569 
C 0.580908 -1.000231 0.296506 -1.118034 0 -1.118034 
C -0.296506 -1.118034 -0.580908 -1.000231 -0.790569 -0.790569 
C -1.000231 -0.580908 -1.118034 -0.296506 -1.118034 0 
C -1.118034 0.296506 -1.000231 0.580908 -0.790569 0.790569 
C -0.580908 1.000231 -0.296506 1.118034 0 1.118034 
z
" id="m12de243496" style="stroke:#0000ff;stroke-opacity:0.3;"/>
    </defs>
    <g clip-path="url(#pe51928f4aa)">
     <use style="fill:#0000ff;fill-opacity:0.3;stroke:#0000ff;stroke-opacity:0.3;" x="184.123363" xlink:href="#m12de243496" y="307.8"/>
     <use style="fill:#0000ff;fill-opacity:0.3;stroke:#0000ff;stroke-opacity:0.3;" x="297.529272" xlink:href="#m12de243496" y="248.18056"/>
     <use style="fill:#0000ff;fill-opacity:0.3;stroke:#0000ff;stroke-opacity:0.3;" x="143.047249" xlink:href="#m12de243496" y="280.79401"/>
     <use style="fill:#0000ff;fill-opacity:0.3;stroke:#0000ff;stroke-opacity:0.3;" x="263.364049" xlink:href="#m12de243496" y="234.083078"/>
     <use style="fill:#0000ff;fill-opacity:0.3;stroke:#0000ff;stroke-opacity:0.3;" x="184.123363" xlink:href="#m12de243496" y="307.8"/>
     <use style="fill:#0000ff;fill-opacity:0.3;stroke:#0000ff;stroke-opacity:0.3;" x="301.72249" xlink:href="#m12de243496" y="245.739756"/>
     <use style="fill:#0000ff;fill-opacity:0.3;stroke:#0000ff;stroke-opacity:0.3;" x="171.859687" xlink:href="#m12de243496" y="252.208441"/>
     <use style="fill:#0000ff;fill-opacity:0.3;stroke:#0000ff;stroke-opacity:0.3;" x="221.532912" xlink:href="#m12de243496" y="130.114593"/>
     <use style="fill:#0000ff;fill-opacity:0.3;stroke:#0000ff;stroke-opacity:0.3;" x="283.670342" xlink:href="#m12de243496" y="256.204693"/>
     <use style="fill:#0000ff;fill-opacity:0.3;stroke:#0000ff;stroke-opacity:0.3;" x="205.552919" xlink:href="#m12de243496" y="298.320662"/>
     <use style="fill:#0000ff;fill-opacity:0.3;stroke:#0000ff;stroke-opacity:0.3;" x="183.63361" xlink:href="#m12de243496" y="207.79707"/>
     <use style="fill:#0000ff;fill-opacity:0.3;stroke:#0000ff;stroke-opacity:0.3;" x="243.562499" xlink:href="#m12de243496" y="278.78985"/>
     <use style="fill:#0000ff;fill-opacity:0.3;stroke:#0000ff;stroke-opacity:0.3;" x="235.55726" xlink:href="#m12de243496" y="283.110581"/>
     <use style="fill:#0000ff;fill-opacity:0.3;stroke:#0000ff;stroke-opacity:0.3;" x="211.958889" xlink:href="#m12de243496" y="208.695341"/>
     <use style="fill:#0000ff;fill-opacity:0.3;stroke:#0000ff;stroke-opacity:0.3;" x="139.655639" xlink:href="#m12de243496" y="295.73553"/>
     <use style="fill:#0000ff;fill-opacity:0.3;stroke:#0000ff;stroke-opacity:0.3;" x="242.727526" xlink:href="#m12de243496" y="147.483245"/>
     <use style="fill:#0000ff;fill-opacity:0.3;stroke:#0000ff;stroke-opacity:0.3;" x="164.771155" xlink:href="#m12de243496" y="142.929208"/>
     <use style="fill:#0000ff;fill-opacity:0.3;stroke:#0000ff;stroke-opacity:0.3;" x="230.044123" xlink:href="#m12de243496" y="128.573012"/>
     <use style="fill:#0000ff;fill-opacity:0.3;stroke:#0000ff;stroke-opacity:0.3;" x="233.693611" xlink:href="#m12de243496" y="250.220585"/>
     <use style="fill:#0000ff;fill-opacity:0.3;stroke:#0000ff;stroke-opacity:0.3;" x="184.123363" xlink:href="#m12de243496" y="307.8"/>
     <use style="fill:#0000ff;fill-opacity:0.3;stroke:#0000ff;stroke-opacity:0.3;" x="286.632488" xlink:href="#m12de243496" y="240.364"/>
     <use style="fill:#0000ff;fill-opacity:0.3;stroke:#0000ff;stroke-opacity:0.3;" x="194.460284" xlink:href="#m12de243496" y="266.271902"/>
     <use style="fill:#0000ff;fill-opacity:0.3;stroke:#0000ff;stroke-opacity:0.3;" x="184.123363" xlink:href="#m12de243496" y="307.8"/>
     <use style="fill:#0000ff;fill-opacity:0.3;stroke:#0000ff;stroke-opacity:0.3;" x="184.123363" xlink:href="#m12de243496" y="307.8"/>
     <use style="fill:#0000ff;fill-opacity:0.3;stroke:#0000ff;stroke-opacity:0.3;" x="184.123363" xlink:href="#m12de243496" y="307.8"/>
     <use style="fill:#0000ff;fill-opacity:0.3;stroke:#0000ff;stroke-opacity:0.3;" x="184.123363" xlink:href="#m12de243496" y="307.8"/>
     <use style="fill:#0000ff;fill-opacity:0.3;stroke:#0000ff;stroke-opacity:0.3;" x="281.413785" xlink:href="#m12de243496" y="257.503763"/>
     <use style="fill:#0000ff;fill-opacity:0.3;stroke:#0000ff;stroke-opacity:0.3;" x="249.546001" xlink:href="#m12de243496" y="275.508434"/>
     <use style="fill:#0000ff;fill-opacity:0.3;stroke:#0000ff;stroke-opacity:0.3;" x="184.123363" xlink:href="#m12de243496" y="307.8"/>
     <use style="fill:#0000ff;fill-opacity:0.3;stroke:#0000ff;stroke-opacity:0.3;" x="213.457367" xlink:href="#m12de243496" y="294.497258"/>
     <use style="fill:#0000ff;fill-opacity:0.3;stroke:#0000ff;stroke-opacity:0.3;" x="255.867511" xlink:href="#m12de243496" y="272.000494"/>
     <use style="fill:#0000ff;fill-opacity:0.3;stroke:#0000ff;stroke-opacity:0.3;" x="278.344853" xlink:href="#m12de243496" y="259.266569"/>
     <use style="fill:#0000ff;fill-opacity:0.3;stroke:#0000ff;stroke-opacity:0.3;" x="250.244851" xlink:href="#m12de243496" y="196.780584"/>
     <use style="fill:#0000ff;fill-opacity:0.3;stroke:#0000ff;stroke-opacity:0.3;" x="276.478356" xlink:href="#m12de243496" y="203.153743"/>
     <use style="fill:#0000ff;fill-opacity:0.3;stroke:#0000ff;stroke-opacity:0.3;" x="246.317617" xlink:href="#m12de243496" y="193.751699"/>
     <use style="fill:#0000ff;fill-opacity:0.3;stroke:#0000ff;stroke-opacity:0.3;" x="184.123363" xlink:href="#m12de243496" y="307.8"/>
     <use style="fill:#0000ff;fill-opacity:0.3;stroke:#0000ff;stroke-opacity:0.3;" x="153.751536" xlink:href="#m12de243496" y="275.339626"/>
     <use style="fill:#0000ff;fill-opacity:0.3;stroke:#0000ff;stroke-opacity:0.3;" x="184.123363" xlink:href="#m12de243496" y="307.8"/>
     <use style="fill:#0000ff;fill-opacity:0.3;stroke:#0000ff;stroke-opacity:0.3;" x="206.511965" xlink:href="#m12de243496" y="273.592839"/>
     <use style="fill:#0000ff;fill-opacity:0.3;stroke:#0000ff;stroke-opacity:0.3;" x="184.123363" xlink:href="#m12de243496" y="307.8"/>
     <use style="fill:#0000ff;fill-opacity:0.3;stroke:#0000ff;stroke-opacity:0.3;" x="193.531052" xlink:href="#m12de243496" y="215.513755"/>
     <use style="fill:#0000ff;fill-opacity:0.3;stroke:#0000ff;stroke-opacity:0.3;" x="184.123363" xlink:href="#m12de243496" y="307.8"/>
     <use style="fill:#0000ff;fill-opacity:0.3;stroke:#0000ff;stroke-opacity:0.3;" x="155.524772" xlink:href="#m12de243496" y="300.950788"/>
     <use style="fill:#0000ff;fill-opacity:0.3;stroke:#0000ff;stroke-opacity:0.3;" x="184.123363" xlink:href="#m12de243496" y="307.8"/>
     <use style="fill:#0000ff;fill-opacity:0.3;stroke:#0000ff;stroke-opacity:0.3;" x="215.161692" xlink:href="#m12de243496" y="293.653412"/>
     <use style="fill:#0000ff;fill-opacity:0.3;stroke:#0000ff;stroke-opacity:0.3;" x="246.243704" xlink:href="#m12de243496" y="198.807877"/>
     <use style="fill:#0000ff;fill-opacity:0.3;stroke:#0000ff;stroke-opacity:0.3;" x="244.660811" xlink:href="#m12de243496" y="278.19062"/>
     <use style="fill:#0000ff;fill-opacity:0.3;stroke:#0000ff;stroke-opacity:0.3;" x="184.123363" xlink:href="#m12de243496" y="307.8"/>
     <use style="fill:#0000ff;fill-opacity:0.3;stroke:#0000ff;stroke-opacity:0.3;" x="184.123363" xlink:href="#m12de243496" y="307.8"/>
     <use style="fill:#0000ff;fill-opacity:0.3;stroke:#0000ff;stroke-opacity:0.3;" x="184.123363" xlink:href="#m12de243496" y="307.8"/>
     <use style="fill:#0000ff;fill-opacity:0.3;stroke:#0000ff;stroke-opacity:0.3;" x="172.715768" xlink:href="#m12de243496" y="273.877761"/>
     <use style="fill:#0000ff;fill-opacity:0.3;stroke:#0000ff;stroke-opacity:0.3;" x="270.499908" xlink:href="#m12de243496" y="263.749603"/>
     <use style="fill:#0000ff;fill-opacity:0.3;stroke:#0000ff;stroke-opacity:0.3;" x="243.004194" xlink:href="#m12de243496" y="279.093895"/>
     <use style="fill:#0000ff;fill-opacity:0.3;stroke:#0000ff;stroke-opacity:0.3;" x="264.687166" xlink:href="#m12de243496" y="267.046579"/>
     <use style="fill:#0000ff;fill-opacity:0.3;stroke:#0000ff;stroke-opacity:0.3;" x="191.190181" xlink:href="#m12de243496" y="304.83309"/>
     <use style="fill:#0000ff;fill-opacity:0.3;stroke:#0000ff;stroke-opacity:0.3;" x="199.966787" xlink:href="#m12de243496" y="246.943876"/>
     <use style="fill:#0000ff;fill-opacity:0.3;stroke:#0000ff;stroke-opacity:0.3;" x="184.123363" xlink:href="#m12de243496" y="307.8"/>
     <use style="fill:#0000ff;fill-opacity:0.3;stroke:#0000ff;stroke-opacity:0.3;" x="268.332505" xlink:href="#m12de243496" y="264.981624"/>
     <use style="fill:#0000ff;fill-opacity:0.3;stroke:#0000ff;stroke-opacity:0.3;" x="141.12156" xlink:href="#m12de243496" y="296.259514"/>
     <use style="fill:#0000ff;fill-opacity:0.3;stroke:#0000ff;stroke-opacity:0.3;" x="236.607397" xlink:href="#m12de243496" y="282.548772"/>
     <use style="fill:#0000ff;fill-opacity:0.3;stroke:#0000ff;stroke-opacity:0.3;" x="164.102638" xlink:href="#m12de243496" y="303.343897"/>
     <use style="fill:#0000ff;fill-opacity:0.3;stroke:#0000ff;stroke-opacity:0.3;" x="204.781141" xlink:href="#m12de243496" y="298.685522"/>
     <use style="fill:#0000ff;fill-opacity:0.3;stroke:#0000ff;stroke-opacity:0.3;" x="219.272717" xlink:href="#m12de243496" y="283.485216"/>
     <use style="fill:#0000ff;fill-opacity:0.3;stroke:#0000ff;stroke-opacity:0.3;" x="203.837853" xlink:href="#m12de243496" y="299.129311"/>
     <use style="fill:#0000ff;fill-opacity:0.3;stroke:#0000ff;stroke-opacity:0.3;" x="184.123363" xlink:href="#m12de243496" y="307.8"/>
     <use style="fill:#0000ff;fill-opacity:0.3;stroke:#0000ff;stroke-opacity:0.3;" x="184.123363" xlink:href="#m12de243496" y="307.8"/>
     <use style="fill:#0000ff;fill-opacity:0.3;stroke:#0000ff;stroke-opacity:0.3;" x="184.123363" xlink:href="#m12de243496" y="307.8"/>
     <use style="fill:#0000ff;fill-opacity:0.3;stroke:#0000ff;stroke-opacity:0.3;" x="241.713211" xlink:href="#m12de243496" y="279.795464"/>
     <use style="fill:#0000ff;fill-opacity:0.3;stroke:#0000ff;stroke-opacity:0.3;" x="184.123363" xlink:href="#m12de243496" y="307.8"/>
     <use style="fill:#0000ff;fill-opacity:0.3;stroke:#0000ff;stroke-opacity:0.3;" x="184.123363" xlink:href="#m12de243496" y="307.8"/>
     <use style="fill:#0000ff;fill-opacity:0.3;stroke:#0000ff;stroke-opacity:0.3;" x="231.879013" xlink:href="#m12de243496" y="285.065442"/>
     <use style="fill:#0000ff;fill-opacity:0.3;stroke:#0000ff;stroke-opacity:0.3;" x="246.891195" xlink:href="#m12de243496" y="276.96937"/>
     <use style="fill:#0000ff;fill-opacity:0.3;stroke:#0000ff;stroke-opacity:0.3;" x="256.293079" xlink:href="#m12de243496" y="218.922448"/>
     <use style="fill:#0000ff;fill-opacity:0.3;stroke:#0000ff;stroke-opacity:0.3;" x="188.37489" xlink:href="#m12de243496" y="268.762069"/>
     <use style="fill:#0000ff;fill-opacity:0.3;stroke:#0000ff;stroke-opacity:0.3;" x="184.123363" xlink:href="#m12de243496" y="307.8"/>
     <use style="fill:#0000ff;fill-opacity:0.3;stroke:#0000ff;stroke-opacity:0.3;" x="289.01759" xlink:href="#m12de243496" y="253.117418"/>
     <use style="fill:#0000ff;fill-opacity:0.3;stroke:#0000ff;stroke-opacity:0.3;" x="184.123363" xlink:href="#m12de243496" y="307.8"/>
     <use style="fill:#0000ff;fill-opacity:0.3;stroke:#0000ff;stroke-opacity:0.3;" x="284.887766" xlink:href="#m12de243496" y="255.502876"/>
     <use style="fill:#0000ff;fill-opacity:0.3;stroke:#0000ff;stroke-opacity:0.3;" x="233.389131" xlink:href="#m12de243496" y="284.265362"/>
     <use style="fill:#0000ff;fill-opacity:0.3;stroke:#0000ff;stroke-opacity:0.3;" x="237.655629" xlink:href="#m12de243496" y="281.986413"/>
     <use style="fill:#0000ff;fill-opacity:0.3;stroke:#0000ff;stroke-opacity:0.3;" x="209.971554" xlink:href="#m12de243496" y="165.61382"/>
     <use style="fill:#0000ff;fill-opacity:0.3;stroke:#0000ff;stroke-opacity:0.3;" x="284.178935" xlink:href="#m12de243496" y="255.911581"/>
     <use style="fill:#0000ff;fill-opacity:0.3;stroke:#0000ff;stroke-opacity:0.3;" x="219.617538" xlink:href="#m12de243496" y="230.495782"/>
     <use style="fill:#0000ff;fill-opacity:0.3;stroke:#0000ff;stroke-opacity:0.3;" x="143.946801" xlink:href="#m12de243496" y="297.245501"/>
     <use style="fill:#0000ff;fill-opacity:0.3;stroke:#0000ff;stroke-opacity:0.3;" x="291.615189" xlink:href="#m12de243496" y="251.613522"/>
     <use style="fill:#0000ff;fill-opacity:0.3;stroke:#0000ff;stroke-opacity:0.3;" x="199.546132" xlink:href="#m12de243496" y="289.042697"/>
     <use style="fill:#0000ff;fill-opacity:0.3;stroke:#0000ff;stroke-opacity:0.3;" x="246.488452" xlink:href="#m12de243496" y="277.190316"/>
     <use style="fill:#0000ff;fill-opacity:0.3;stroke:#0000ff;stroke-opacity:0.3;" x="264.201881" xlink:href="#m12de243496" y="255.066761"/>
     <use style="fill:#0000ff;fill-opacity:0.3;stroke:#0000ff;stroke-opacity:0.3;" x="184.123363" xlink:href="#m12de243496" y="307.8"/>
     <use style="fill:#0000ff;fill-opacity:0.3;stroke:#0000ff;stroke-opacity:0.3;" x="184.123363" xlink:href="#m12de243496" y="307.8"/>
     <use style="fill:#0000ff;fill-opacity:0.3;stroke:#0000ff;stroke-opacity:0.3;" x="220.946" xlink:href="#m12de243496" y="290.742646"/>
     <use style="fill:#0000ff;fill-opacity:0.3;stroke:#0000ff;stroke-opacity:0.3;" x="250.997631" xlink:href="#m12de243496" y="274.706416"/>
     <use style="fill:#0000ff;fill-opacity:0.3;stroke:#0000ff;stroke-opacity:0.3;" x="184.123363" xlink:href="#m12de243496" y="307.8"/>
     <use style="fill:#0000ff;fill-opacity:0.3;stroke:#0000ff;stroke-opacity:0.3;" x="269.552438" xlink:href="#m12de243496" y="264.288551"/>
     <use style="fill:#0000ff;fill-opacity:0.3;stroke:#0000ff;stroke-opacity:0.3;" x="184.123363" xlink:href="#m12de243496" y="307.8"/>
     <use style="fill:#0000ff;fill-opacity:0.3;stroke:#0000ff;stroke-opacity:0.3;" x="269.496196" xlink:href="#m12de243496" y="264.320524"/>
     <use style="fill:#0000ff;fill-opacity:0.3;stroke:#0000ff;stroke-opacity:0.3;" x="217.800078" xlink:href="#m12de243496" y="292.334459"/>
     <use style="fill:#0000ff;fill-opacity:0.3;stroke:#0000ff;stroke-opacity:0.3;" x="253.320086" xlink:href="#m12de243496" y="273.418816"/>
     <use style="fill:#0000ff;fill-opacity:0.3;stroke:#0000ff;stroke-opacity:0.3;" x="285.266073" xlink:href="#m12de243496" y="255.284658"/>
     <use style="fill:#0000ff;fill-opacity:0.3;stroke:#0000ff;stroke-opacity:0.3;" x="168.083492" xlink:href="#m12de243496" y="209.490893"/>
     <use style="fill:#0000ff;fill-opacity:0.3;stroke:#0000ff;stroke-opacity:0.3;" x="236.176769" xlink:href="#m12de243496" y="243.105209"/>
     <use style="fill:#0000ff;fill-opacity:0.3;stroke:#0000ff;stroke-opacity:0.3;" x="184.123363" xlink:href="#m12de243496" y="307.8"/>
     <use style="fill:#0000ff;fill-opacity:0.3;stroke:#0000ff;stroke-opacity:0.3;" x="274.450085" xlink:href="#m12de243496" y="261.496661"/>
     <use style="fill:#0000ff;fill-opacity:0.3;stroke:#0000ff;stroke-opacity:0.3;" x="256.433352" xlink:href="#m12de243496" y="271.684638"/>
     <use style="fill:#0000ff;fill-opacity:0.3;stroke:#0000ff;stroke-opacity:0.3;" x="282.830651" xlink:href="#m12de243496" y="256.688368"/>
     <use style="fill:#0000ff;fill-opacity:0.3;stroke:#0000ff;stroke-opacity:0.3;" x="265.774958" xlink:href="#m12de243496" y="266.431363"/>
     <use style="fill:#0000ff;fill-opacity:0.3;stroke:#0000ff;stroke-opacity:0.3;" x="274.757418" xlink:href="#m12de243496" y="261.320991"/>
     <use style="fill:#0000ff;fill-opacity:0.3;stroke:#0000ff;stroke-opacity:0.3;" x="214.264832" xlink:href="#m12de243496" y="294.098282"/>
     <use style="fill:#0000ff;fill-opacity:0.3;stroke:#0000ff;stroke-opacity:0.3;" x="184.123363" xlink:href="#m12de243496" y="307.8"/>
     <use style="fill:#0000ff;fill-opacity:0.3;stroke:#0000ff;stroke-opacity:0.3;" x="184.123363" xlink:href="#m12de243496" y="307.8"/>
     <use style="fill:#0000ff;fill-opacity:0.3;stroke:#0000ff;stroke-opacity:0.3;" x="148.991653" xlink:href="#m12de243496" y="298.92681"/>
     <use style="fill:#0000ff;fill-opacity:0.3;stroke:#0000ff;stroke-opacity:0.3;" x="254.420883" xlink:href="#m12de243496" y="272.806677"/>
     <use style="fill:#0000ff;fill-opacity:0.3;stroke:#0000ff;stroke-opacity:0.3;" x="186.762365" xlink:href="#m12de243496" y="244.001178"/>
     <use style="fill:#0000ff;fill-opacity:0.3;stroke:#0000ff;stroke-opacity:0.3;" x="245.732002" xlink:href="#m12de243496" y="240.856683"/>
     <use style="fill:#0000ff;fill-opacity:0.3;stroke:#0000ff;stroke-opacity:0.3;" x="184.123363" xlink:href="#m12de243496" y="307.8"/>
     <use style="fill:#0000ff;fill-opacity:0.3;stroke:#0000ff;stroke-opacity:0.3;" x="115.363636" xlink:href="#m12de243496" y="285.904079"/>
     <use style="fill:#0000ff;fill-opacity:0.3;stroke:#0000ff;stroke-opacity:0.3;" x="226.330055" xlink:href="#m12de243496" y="258.688748"/>
     <use style="fill:#0000ff;fill-opacity:0.3;stroke:#0000ff;stroke-opacity:0.3;" x="184.123363" xlink:href="#m12de243496" y="307.8"/>
     <use style="fill:#0000ff;fill-opacity:0.3;stroke:#0000ff;stroke-opacity:0.3;" x="258.341599" xlink:href="#m12de243496" y="270.617345"/>
     <use style="fill:#0000ff;fill-opacity:0.3;stroke:#0000ff;stroke-opacity:0.3;" x="215.12881" xlink:href="#m12de243496" y="293.669754"/>
     <use style="fill:#0000ff;fill-opacity:0.3;stroke:#0000ff;stroke-opacity:0.3;" x="224.418345" xlink:href="#m12de243496" y="267.127894"/>
     <use style="fill:#0000ff;fill-opacity:0.3;stroke:#0000ff;stroke-opacity:0.3;" x="251.476432" xlink:href="#m12de243496" y="274.441404"/>
     <use style="fill:#0000ff;fill-opacity:0.3;stroke:#0000ff;stroke-opacity:0.3;" x="217.321801" xlink:href="#m12de243496" y="292.574666"/>
     <use style="fill:#0000ff;fill-opacity:0.3;stroke:#0000ff;stroke-opacity:0.3;" x="248.651732" xlink:href="#m12de243496" y="178.450083"/>
     <use style="fill:#0000ff;fill-opacity:0.3;stroke:#0000ff;stroke-opacity:0.3;" x="211.457729" xlink:href="#m12de243496" y="288.763917"/>
     <use style="fill:#0000ff;fill-opacity:0.3;stroke:#0000ff;stroke-opacity:0.3;" x="184.123363" xlink:href="#m12de243496" y="307.8"/>
     <use style="fill:#0000ff;fill-opacity:0.3;stroke:#0000ff;stroke-opacity:0.3;" x="228.415324" xlink:href="#m12de243496" y="265.422323"/>
     <use style="fill:#0000ff;fill-opacity:0.3;stroke:#0000ff;stroke-opacity:0.3;" x="196.623035" xlink:href="#m12de243496" y="245.477817"/>
     <use style="fill:#0000ff;fill-opacity:0.3;stroke:#0000ff;stroke-opacity:0.3;" x="215.768227" xlink:href="#m12de243496" y="293.351539"/>
     <use style="fill:#0000ff;fill-opacity:0.3;stroke:#0000ff;stroke-opacity:0.3;" x="285.599966" xlink:href="#m12de243496" y="255.092007"/>
     <use style="fill:#0000ff;fill-opacity:0.3;stroke:#0000ff;stroke-opacity:0.3;" x="200.996182" xlink:href="#m12de243496" y="273.038673"/>
     <use style="fill:#0000ff;fill-opacity:0.3;stroke:#0000ff;stroke-opacity:0.3;" x="203.281596" xlink:href="#m12de243496" y="259.524561"/>
     <use style="fill:#0000ff;fill-opacity:0.3;stroke:#0000ff;stroke-opacity:0.3;" x="169.29109" xlink:href="#m12de243496" y="304.647215"/>
     <use style="fill:#0000ff;fill-opacity:0.3;stroke:#0000ff;stroke-opacity:0.3;" x="184.123363" xlink:href="#m12de243496" y="307.8"/>
     <use style="fill:#0000ff;fill-opacity:0.3;stroke:#0000ff;stroke-opacity:0.3;" x="151.757234" xlink:href="#m12de243496" y="299.804829"/>
    </g>
   </g>
   <g id="matplotlib.axis_1">
    <g id="xtick_1">
     <g id="line2d_1">
      <defs>
       <path d="M 0 0 
L 0 3.5 
" id="m0e35e601cd" style="stroke:#000000;stroke-width:0.8;"/>
      </defs>
      <g>
       <use style="stroke:#000000;stroke-width:0.8;" x="92.639569" xlink:href="#m0e35e601cd" y="320.4"/>
      </g>
     </g>
     <g id="text_1">
      <!-- −2.5 -->
      <defs>
       <path d="M 10.59375 35.5 
L 73.1875 35.5 
L 73.1875 27.203125 
L 10.59375 27.203125 
z
" id="DejaVuSans-8722"/>
       <path d="M 19.1875 8.296875 
L 53.609375 8.296875 
L 53.609375 0 
L 7.328125 0 
L 7.328125 8.296875 
Q 12.9375 14.109375 22.625 23.890625 
Q 32.328125 33.6875 34.8125 36.53125 
Q 39.546875 41.84375 41.421875 45.53125 
Q 43.3125 49.21875 43.3125 52.78125 
Q 43.3125 58.59375 39.234375 62.25 
Q 35.15625 65.921875 28.609375 65.921875 
Q 23.96875 65.921875 18.8125 64.3125 
Q 13.671875 62.703125 7.8125 59.421875 
L 7.8125 69.390625 
Q 13.765625 71.78125 18.9375 73 
Q 24.125 74.21875 28.421875 74.21875 
Q 39.75 74.21875 46.484375 68.546875 
Q 53.21875 62.890625 53.21875 53.421875 
Q 53.21875 48.921875 51.53125 44.890625 
Q 49.859375 40.875 45.40625 35.40625 
Q 44.1875 33.984375 37.640625 27.21875 
Q 31.109375 20.453125 19.1875 8.296875 
z
" id="DejaVuSans-50"/>
       <path d="M 10.6875 12.40625 
L 21 12.40625 
L 21 0 
L 10.6875 0 
z
" id="DejaVuSans-46"/>
       <path d="M 10.796875 72.90625 
L 49.515625 72.90625 
L 49.515625 64.59375 
L 19.828125 64.59375 
L 19.828125 46.734375 
Q 21.96875 47.46875 24.109375 47.828125 
Q 26.265625 48.1875 28.421875 48.1875 
Q 40.625 48.1875 47.75 41.5 
Q 54.890625 34.8125 54.890625 23.390625 
Q 54.890625 11.625 47.5625 5.09375 
Q 40.234375 -1.421875 26.90625 -1.421875 
Q 22.3125 -1.421875 17.546875 -0.640625 
Q 12.796875 0.140625 7.71875 1.703125 
L 7.71875 11.625 
Q 12.109375 9.234375 16.796875 8.0625 
Q 21.484375 6.890625 26.703125 6.890625 
Q 35.15625 6.890625 40.078125 11.328125 
Q 45.015625 15.765625 45.015625 23.390625 
Q 45.015625 31 40.078125 35.4375 
Q 35.15625 39.890625 26.703125 39.890625 
Q 22.75 39.890625 18.8125 39.015625 
Q 14.890625 38.140625 10.796875 36.28125 
z
" id="DejaVuSans-53"/>
      </defs>
      <g transform="translate(80.498163 334.998438)scale(0.1 -0.1)">
       <use xlink:href="#DejaVuSans-8722"/>
       <use x="83.789062" xlink:href="#DejaVuSans-50"/>
       <use x="147.412109" xlink:href="#DejaVuSans-46"/>
       <use x="179.199219" xlink:href="#DejaVuSans-53"/>
      </g>
     </g>
    </g>
    <g id="xtick_2">
     <g id="line2d_2">
      <g>
       <use style="stroke:#000000;stroke-width:0.8;" x="155.511481" xlink:href="#m0e35e601cd" y="320.4"/>
      </g>
     </g>
     <g id="text_2">
      <!-- 0.0 -->
      <defs>
       <path d="M 31.78125 66.40625 
Q 24.171875 66.40625 20.328125 58.90625 
Q 16.5 51.421875 16.5 36.375 
Q 16.5 21.390625 20.328125 13.890625 
Q 24.171875 6.390625 31.78125 6.390625 
Q 39.453125 6.390625 43.28125 13.890625 
Q 47.125 21.390625 47.125 36.375 
Q 47.125 51.421875 43.28125 58.90625 
Q 39.453125 66.40625 31.78125 66.40625 
z
M 31.78125 74.21875 
Q 44.046875 74.21875 50.515625 64.515625 
Q 56.984375 54.828125 56.984375 36.375 
Q 56.984375 17.96875 50.515625 8.265625 
Q 44.046875 -1.421875 31.78125 -1.421875 
Q 19.53125 -1.421875 13.0625 8.265625 
Q 6.59375 17.96875 6.59375 36.375 
Q 6.59375 54.828125 13.0625 64.515625 
Q 19.53125 74.21875 31.78125 74.21875 
z
" id="DejaVuSans-48"/>
      </defs>
      <g transform="translate(147.559918 334.998438)scale(0.1 -0.1)">
       <use xlink:href="#DejaVuSans-48"/>
       <use x="63.623047" xlink:href="#DejaVuSans-46"/>
       <use x="95.410156" xlink:href="#DejaVuSans-48"/>
      </g>
     </g>
    </g>
    <g id="xtick_3">
     <g id="line2d_3">
      <g>
       <use style="stroke:#000000;stroke-width:0.8;" x="218.383392" xlink:href="#m0e35e601cd" y="320.4"/>
      </g>
     </g>
     <g id="text_3">
      <!-- 2.5 -->
      <g transform="translate(210.43183 334.998438)scale(0.1 -0.1)">
       <use xlink:href="#DejaVuSans-50"/>
       <use x="63.623047" xlink:href="#DejaVuSans-46"/>
       <use x="95.410156" xlink:href="#DejaVuSans-53"/>
      </g>
     </g>
    </g>
    <g id="xtick_4">
     <g id="line2d_4">
      <g>
       <use style="stroke:#000000;stroke-width:0.8;" x="281.255304" xlink:href="#m0e35e601cd" y="320.4"/>
      </g>
     </g>
     <g id="text_4">
      <!-- 5.0 -->
      <g transform="translate(273.303741 334.998438)scale(0.1 -0.1)">
       <use xlink:href="#DejaVuSans-53"/>
       <use x="63.623047" xlink:href="#DejaVuSans-46"/>
       <use x="95.410156" xlink:href="#DejaVuSans-48"/>
      </g>
     </g>
    </g>
    <g id="xtick_5">
     <g id="line2d_5">
      <g>
       <use style="stroke:#000000;stroke-width:0.8;" x="344.127215" xlink:href="#m0e35e601cd" y="320.4"/>
      </g>
     </g>
     <g id="text_5">
      <!-- 7.5 -->
      <defs>
       <path d="M 8.203125 72.90625 
L 55.078125 72.90625 
L 55.078125 68.703125 
L 28.609375 0 
L 18.3125 0 
L 43.21875 64.59375 
L 8.203125 64.59375 
z
" id="DejaVuSans-55"/>
      </defs>
      <g transform="translate(336.175653 334.998438)scale(0.1 -0.1)">
       <use xlink:href="#DejaVuSans-55"/>
       <use x="63.623047" xlink:href="#DejaVuSans-46"/>
       <use x="95.410156" xlink:href="#DejaVuSans-53"/>
      </g>
     </g>
    </g>
    <g id="xtick_6">
     <g id="line2d_6">
      <g>
       <use style="stroke:#000000;stroke-width:0.8;" x="406.999127" xlink:href="#m0e35e601cd" y="320.4"/>
      </g>
     </g>
     <g id="text_6">
      <!-- 10.0 -->
      <defs>
       <path d="M 12.40625 8.296875 
L 28.515625 8.296875 
L 28.515625 63.921875 
L 10.984375 60.40625 
L 10.984375 69.390625 
L 28.421875 72.90625 
L 38.28125 72.90625 
L 38.28125 8.296875 
L 54.390625 8.296875 
L 54.390625 0 
L 12.40625 0 
z
" id="DejaVuSans-49"/>
      </defs>
      <g transform="translate(395.866314 334.998438)scale(0.1 -0.1)">
       <use xlink:href="#DejaVuSans-49"/>
       <use x="63.623047" xlink:href="#DejaVuSans-48"/>
       <use x="127.246094" xlink:href="#DejaVuSans-46"/>
       <use x="159.033203" xlink:href="#DejaVuSans-48"/>
      </g>
     </g>
    </g>
    <g id="xtick_7">
     <g id="line2d_7">
      <g>
       <use style="stroke:#000000;stroke-width:0.8;" x="469.871038" xlink:href="#m0e35e601cd" y="320.4"/>
      </g>
     </g>
     <g id="text_7">
      <!-- 12.5 -->
      <g transform="translate(458.738226 334.998438)scale(0.1 -0.1)">
       <use xlink:href="#DejaVuSans-49"/>
       <use x="63.623047" xlink:href="#DejaVuSans-50"/>
       <use x="127.246094" xlink:href="#DejaVuSans-46"/>
       <use x="159.033203" xlink:href="#DejaVuSans-53"/>
      </g>
     </g>
    </g>
    <g id="xtick_8">
     <g id="line2d_8">
      <g>
       <use style="stroke:#000000;stroke-width:0.8;" x="532.74295" xlink:href="#m0e35e601cd" y="320.4"/>
      </g>
     </g>
     <g id="text_8">
      <!-- 15.0 -->
      <g transform="translate(521.610137 334.998438)scale(0.1 -0.1)">
       <use xlink:href="#DejaVuSans-49"/>
       <use x="63.623047" xlink:href="#DejaVuSans-53"/>
       <use x="127.246094" xlink:href="#DejaVuSans-46"/>
       <use x="159.033203" xlink:href="#DejaVuSans-48"/>
      </g>
     </g>
    </g>
    <g id="xtick_9">
     <g id="line2d_9">
      <g>
       <use style="stroke:#000000;stroke-width:0.8;" x="595.614862" xlink:href="#m0e35e601cd" y="320.4"/>
      </g>
     </g>
     <g id="text_9">
      <!-- 17.5 -->
      <g transform="translate(584.482049 334.998438)scale(0.1 -0.1)">
       <use xlink:href="#DejaVuSans-49"/>
       <use x="63.623047" xlink:href="#DejaVuSans-55"/>
       <use x="127.246094" xlink:href="#DejaVuSans-46"/>
       <use x="159.033203" xlink:href="#DejaVuSans-53"/>
      </g>
     </g>
    </g>
    <g id="text_10">
     <!-- log2fc_1 -->
     <defs>
      <path d="M 9.421875 75.984375 
L 18.40625 75.984375 
L 18.40625 0 
L 9.421875 0 
z
" id="DejaVuSans-108"/>
      <path d="M 30.609375 48.390625 
Q 23.390625 48.390625 19.1875 42.75 
Q 14.984375 37.109375 14.984375 27.296875 
Q 14.984375 17.484375 19.15625 11.84375 
Q 23.34375 6.203125 30.609375 6.203125 
Q 37.796875 6.203125 41.984375 11.859375 
Q 46.1875 17.53125 46.1875 27.296875 
Q 46.1875 37.015625 41.984375 42.703125 
Q 37.796875 48.390625 30.609375 48.390625 
z
M 30.609375 56 
Q 42.328125 56 49.015625 48.375 
Q 55.71875 40.765625 55.71875 27.296875 
Q 55.71875 13.875 49.015625 6.21875 
Q 42.328125 -1.421875 30.609375 -1.421875 
Q 18.84375 -1.421875 12.171875 6.21875 
Q 5.515625 13.875 5.515625 27.296875 
Q 5.515625 40.765625 12.171875 48.375 
Q 18.84375 56 30.609375 56 
z
" id="DejaVuSans-111"/>
      <path d="M 45.40625 27.984375 
Q 45.40625 37.75 41.375 43.109375 
Q 37.359375 48.484375 30.078125 48.484375 
Q 22.859375 48.484375 18.828125 43.109375 
Q 14.796875 37.75 14.796875 27.984375 
Q 14.796875 18.265625 18.828125 12.890625 
Q 22.859375 7.515625 30.078125 7.515625 
Q 37.359375 7.515625 41.375 12.890625 
Q 45.40625 18.265625 45.40625 27.984375 
z
M 54.390625 6.78125 
Q 54.390625 -7.171875 48.1875 -13.984375 
Q 42 -20.796875 29.203125 -20.796875 
Q 24.46875 -20.796875 20.265625 -20.09375 
Q 16.0625 -19.390625 12.109375 -17.921875 
L 12.109375 -9.1875 
Q 16.0625 -11.328125 19.921875 -12.34375 
Q 23.78125 -13.375 27.78125 -13.375 
Q 36.625 -13.375 41.015625 -8.765625 
Q 45.40625 -4.15625 45.40625 5.171875 
L 45.40625 9.625 
Q 42.625 4.78125 38.28125 2.390625 
Q 33.9375 0 27.875 0 
Q 17.828125 0 11.671875 7.65625 
Q 5.515625 15.328125 5.515625 27.984375 
Q 5.515625 40.671875 11.671875 48.328125 
Q 17.828125 56 27.875 56 
Q 33.9375 56 38.28125 53.609375 
Q 42.625 51.21875 45.40625 46.390625 
L 45.40625 54.6875 
L 54.390625 54.6875 
z
" id="DejaVuSans-103"/>
      <path d="M 37.109375 75.984375 
L 37.109375 68.5 
L 28.515625 68.5 
Q 23.6875 68.5 21.796875 66.546875 
Q 19.921875 64.59375 19.921875 59.515625 
L 19.921875 54.6875 
L 34.71875 54.6875 
L 34.71875 47.703125 
L 19.921875 47.703125 
L 19.921875 0 
L 10.890625 0 
L 10.890625 47.703125 
L 2.296875 47.703125 
L 2.296875 54.6875 
L 10.890625 54.6875 
L 10.890625 58.5 
Q 10.890625 67.625 15.140625 71.796875 
Q 19.390625 75.984375 28.609375 75.984375 
z
" id="DejaVuSans-102"/>
      <path d="M 48.78125 52.59375 
L 48.78125 44.1875 
Q 44.96875 46.296875 41.140625 47.34375 
Q 37.3125 48.390625 33.40625 48.390625 
Q 24.65625 48.390625 19.8125 42.84375 
Q 14.984375 37.3125 14.984375 27.296875 
Q 14.984375 17.28125 19.8125 11.734375 
Q 24.65625 6.203125 33.40625 6.203125 
Q 37.3125 6.203125 41.140625 7.25 
Q 44.96875 8.296875 48.78125 10.40625 
L 48.78125 2.09375 
Q 45.015625 0.34375 40.984375 -0.53125 
Q 36.96875 -1.421875 32.421875 -1.421875 
Q 20.0625 -1.421875 12.78125 6.34375 
Q 5.515625 14.109375 5.515625 27.296875 
Q 5.515625 40.671875 12.859375 48.328125 
Q 20.21875 56 33.015625 56 
Q 37.15625 56 41.109375 55.140625 
Q 45.0625 54.296875 48.78125 52.59375 
z
" id="DejaVuSans-99"/>
      <path d="M 50.984375 -16.609375 
L 50.984375 -23.578125 
L -0.984375 -23.578125 
L -0.984375 -16.609375 
z
" id="DejaVuSans-95"/>
     </defs>
     <g transform="translate(343.806562 350.19625)scale(0.12 -0.12)">
      <use xlink:href="#DejaVuSans-108"/>
      <use x="27.783203" xlink:href="#DejaVuSans-111"/>
      <use x="88.964844" xlink:href="#DejaVuSans-103"/>
      <use x="152.441406" xlink:href="#DejaVuSans-50"/>
      <use x="216.064453" xlink:href="#DejaVuSans-102"/>
      <use x="251.269531" xlink:href="#DejaVuSans-99"/>
      <use x="306.25" xlink:href="#DejaVuSans-95"/>
      <use x="356.25" xlink:href="#DejaVuSans-49"/>
     </g>
    </g>
   </g>
   <g id="matplotlib.axis_2">
    <g id="ytick_1">
     <g id="line2d_10">
      <defs>
       <path d="M 0 0 
L -3.5 0 
" id="m99ceee6928" style="stroke:#000000;stroke-width:0.8;"/>
      </defs>
      <g>
       <use style="stroke:#000000;stroke-width:0.8;" x="90" xlink:href="#m99ceee6928" y="289.97828"/>
      </g>
     </g>
     <g id="text_11">
      <!-- 5 -->
      <g transform="translate(76.6375 293.777499)scale(0.1 -0.1)">
       <use xlink:href="#DejaVuSans-53"/>
      </g>
     </g>
    </g>
    <g id="ytick_2">
     <g id="line2d_11">
      <g>
       <use style="stroke:#000000;stroke-width:0.8;" x="90" xlink:href="#m99ceee6928" y="240.433239"/>
      </g>
     </g>
     <g id="text_12">
      <!-- 6 -->
      <defs>
       <path d="M 33.015625 40.375 
Q 26.375 40.375 22.484375 35.828125 
Q 18.609375 31.296875 18.609375 23.390625 
Q 18.609375 15.53125 22.484375 10.953125 
Q 26.375 6.390625 33.015625 6.390625 
Q 39.65625 6.390625 43.53125 10.953125 
Q 47.40625 15.53125 47.40625 23.390625 
Q 47.40625 31.296875 43.53125 35.828125 
Q 39.65625 40.375 33.015625 40.375 
z
M 52.59375 71.296875 
L 52.59375 62.3125 
Q 48.875 64.0625 45.09375 64.984375 
Q 41.3125 65.921875 37.59375 65.921875 
Q 27.828125 65.921875 22.671875 59.328125 
Q 17.53125 52.734375 16.796875 39.40625 
Q 19.671875 43.65625 24.015625 45.921875 
Q 28.375 48.1875 33.59375 48.1875 
Q 44.578125 48.1875 50.953125 41.515625 
Q 57.328125 34.859375 57.328125 23.390625 
Q 57.328125 12.15625 50.6875 5.359375 
Q 44.046875 -1.421875 33.015625 -1.421875 
Q 20.359375 -1.421875 13.671875 8.265625 
Q 6.984375 17.96875 6.984375 36.375 
Q 6.984375 53.65625 15.1875 63.9375 
Q 23.390625 74.21875 37.203125 74.21875 
Q 40.921875 74.21875 44.703125 73.484375 
Q 48.484375 72.75 52.59375 71.296875 
z
" id="DejaVuSans-54"/>
      </defs>
      <g transform="translate(76.6375 244.232457)scale(0.1 -0.1)">
       <use xlink:href="#DejaVuSans-54"/>
      </g>
     </g>
    </g>
    <g id="ytick_3">
     <g id="line2d_12">
      <g>
       <use style="stroke:#000000;stroke-width:0.8;" x="90" xlink:href="#m99ceee6928" y="190.888197"/>
      </g>
     </g>
     <g id="text_13">
      <!-- 7 -->
      <g transform="translate(76.6375 194.687416)scale(0.1 -0.1)">
       <use xlink:href="#DejaVuSans-55"/>
      </g>
     </g>
    </g>
    <g id="ytick_4">
     <g id="line2d_13">
      <g>
       <use style="stroke:#000000;stroke-width:0.8;" x="90" xlink:href="#m99ceee6928" y="141.343155"/>
      </g>
     </g>
     <g id="text_14">
      <!-- 8 -->
      <defs>
       <path d="M 31.78125 34.625 
Q 24.75 34.625 20.71875 30.859375 
Q 16.703125 27.09375 16.703125 20.515625 
Q 16.703125 13.921875 20.71875 10.15625 
Q 24.75 6.390625 31.78125 6.390625 
Q 38.8125 6.390625 42.859375 10.171875 
Q 46.921875 13.96875 46.921875 20.515625 
Q 46.921875 27.09375 42.890625 30.859375 
Q 38.875 34.625 31.78125 34.625 
z
M 21.921875 38.8125 
Q 15.578125 40.375 12.03125 44.71875 
Q 8.5 49.078125 8.5 55.328125 
Q 8.5 64.0625 14.71875 69.140625 
Q 20.953125 74.21875 31.78125 74.21875 
Q 42.671875 74.21875 48.875 69.140625 
Q 55.078125 64.0625 55.078125 55.328125 
Q 55.078125 49.078125 51.53125 44.71875 
Q 48 40.375 41.703125 38.8125 
Q 48.828125 37.15625 52.796875 32.3125 
Q 56.78125 27.484375 56.78125 20.515625 
Q 56.78125 9.90625 50.3125 4.234375 
Q 43.84375 -1.421875 31.78125 -1.421875 
Q 19.734375 -1.421875 13.25 4.234375 
Q 6.78125 9.90625 6.78125 20.515625 
Q 6.78125 27.484375 10.78125 32.3125 
Q 14.796875 37.15625 21.921875 38.8125 
z
M 18.3125 54.390625 
Q 18.3125 48.734375 21.84375 45.5625 
Q 25.390625 42.390625 31.78125 42.390625 
Q 38.140625 42.390625 41.71875 45.5625 
Q 45.3125 48.734375 45.3125 54.390625 
Q 45.3125 60.0625 41.71875 63.234375 
Q 38.140625 66.40625 31.78125 66.40625 
Q 25.390625 66.40625 21.84375 63.234375 
Q 18.3125 60.0625 18.3125 54.390625 
z
" id="DejaVuSans-56"/>
      </defs>
      <g transform="translate(76.6375 145.142374)scale(0.1 -0.1)">
       <use xlink:href="#DejaVuSans-56"/>
      </g>
     </g>
    </g>
    <g id="ytick_5">
     <g id="line2d_14">
      <g>
       <use style="stroke:#000000;stroke-width:0.8;" x="90" xlink:href="#m99ceee6928" y="91.798113"/>
      </g>
     </g>
     <g id="text_15">
      <!-- 9 -->
      <defs>
       <path d="M 10.984375 1.515625 
L 10.984375 10.5 
Q 14.703125 8.734375 18.5 7.8125 
Q 22.3125 6.890625 25.984375 6.890625 
Q 35.75 6.890625 40.890625 13.453125 
Q 46.046875 20.015625 46.78125 33.40625 
Q 43.953125 29.203125 39.59375 26.953125 
Q 35.25 24.703125 29.984375 24.703125 
Q 19.046875 24.703125 12.671875 31.3125 
Q 6.296875 37.9375 6.296875 49.421875 
Q 6.296875 60.640625 12.9375 67.421875 
Q 19.578125 74.21875 30.609375 74.21875 
Q 43.265625 74.21875 49.921875 64.515625 
Q 56.59375 54.828125 56.59375 36.375 
Q 56.59375 19.140625 48.40625 8.859375 
Q 40.234375 -1.421875 26.421875 -1.421875 
Q 22.703125 -1.421875 18.890625 -0.6875 
Q 15.09375 0.046875 10.984375 1.515625 
z
M 30.609375 32.421875 
Q 37.25 32.421875 41.125 36.953125 
Q 45.015625 41.5 45.015625 49.421875 
Q 45.015625 57.28125 41.125 61.84375 
Q 37.25 66.40625 30.609375 66.40625 
Q 23.96875 66.40625 20.09375 61.84375 
Q 16.21875 57.28125 16.21875 49.421875 
Q 16.21875 41.5 20.09375 36.953125 
Q 23.96875 32.421875 30.609375 32.421875 
z
" id="DejaVuSans-57"/>
      </defs>
      <g transform="translate(76.6375 95.597332)scale(0.1 -0.1)">
       <use xlink:href="#DejaVuSans-57"/>
      </g>
     </g>
    </g>
    <g id="text_16">
     <!-- log10sum_1 -->
     <defs>
      <path d="M 44.28125 53.078125 
L 44.28125 44.578125 
Q 40.484375 46.53125 36.375 47.5 
Q 32.28125 48.484375 27.875 48.484375 
Q 21.1875 48.484375 17.84375 46.4375 
Q 14.5 44.390625 14.5 40.28125 
Q 14.5 37.15625 16.890625 35.375 
Q 19.28125 33.59375 26.515625 31.984375 
L 29.59375 31.296875 
Q 39.15625 29.25 43.1875 25.515625 
Q 47.21875 21.78125 47.21875 15.09375 
Q 47.21875 7.46875 41.1875 3.015625 
Q 35.15625 -1.421875 24.609375 -1.421875 
Q 20.21875 -1.421875 15.453125 -0.5625 
Q 10.6875 0.296875 5.421875 2 
L 5.421875 11.28125 
Q 10.40625 8.6875 15.234375 7.390625 
Q 20.0625 6.109375 24.8125 6.109375 
Q 31.15625 6.109375 34.5625 8.28125 
Q 37.984375 10.453125 37.984375 14.40625 
Q 37.984375 18.0625 35.515625 20.015625 
Q 33.0625 21.96875 24.703125 23.78125 
L 21.578125 24.515625 
Q 13.234375 26.265625 9.515625 29.90625 
Q 5.8125 33.546875 5.8125 39.890625 
Q 5.8125 47.609375 11.28125 51.796875 
Q 16.75 56 26.8125 56 
Q 31.78125 56 36.171875 55.265625 
Q 40.578125 54.546875 44.28125 53.078125 
z
" id="DejaVuSans-115"/>
      <path d="M 8.5 21.578125 
L 8.5 54.6875 
L 17.484375 54.6875 
L 17.484375 21.921875 
Q 17.484375 14.15625 20.5 10.265625 
Q 23.53125 6.390625 29.59375 6.390625 
Q 36.859375 6.390625 41.078125 11.03125 
Q 45.3125 15.671875 45.3125 23.6875 
L 45.3125 54.6875 
L 54.296875 54.6875 
L 54.296875 0 
L 45.3125 0 
L 45.3125 8.40625 
Q 42.046875 3.421875 37.71875 1 
Q 33.40625 -1.421875 27.6875 -1.421875 
Q 18.265625 -1.421875 13.375 4.4375 
Q 8.5 10.296875 8.5 21.578125 
z
M 31.109375 56 
z
" id="DejaVuSans-117"/>
      <path d="M 52 44.1875 
Q 55.375 50.25 60.0625 53.125 
Q 64.75 56 71.09375 56 
Q 79.640625 56 84.28125 50.015625 
Q 88.921875 44.046875 88.921875 33.015625 
L 88.921875 0 
L 79.890625 0 
L 79.890625 32.71875 
Q 79.890625 40.578125 77.09375 44.375 
Q 74.3125 48.1875 68.609375 48.1875 
Q 61.625 48.1875 57.5625 43.546875 
Q 53.515625 38.921875 53.515625 30.90625 
L 53.515625 0 
L 44.484375 0 
L 44.484375 32.71875 
Q 44.484375 40.625 41.703125 44.40625 
Q 38.921875 48.1875 33.109375 48.1875 
Q 26.21875 48.1875 22.15625 43.53125 
Q 18.109375 38.875 18.109375 30.90625 
L 18.109375 0 
L 9.078125 0 
L 9.078125 54.6875 
L 18.109375 54.6875 
L 18.109375 46.1875 
Q 21.1875 51.21875 25.484375 53.609375 
Q 29.78125 56 35.6875 56 
Q 41.65625 56 45.828125 52.96875 
Q 50 49.953125 52 44.1875 
z
" id="DejaVuSans-109"/>
     </defs>
     <g transform="translate(69.808125 218.172187)rotate(-90)scale(0.12 -0.12)">
      <use xlink:href="#DejaVuSans-108"/>
      <use x="27.783203" xlink:href="#DejaVuSans-111"/>
      <use x="88.964844" xlink:href="#DejaVuSans-103"/>
      <use x="152.441406" xlink:href="#DejaVuSans-49"/>
      <use x="216.064453" xlink:href="#DejaVuSans-48"/>
      <use x="279.6875" xlink:href="#DejaVuSans-115"/>
      <use x="331.787109" xlink:href="#DejaVuSans-117"/>
      <use x="395.166016" xlink:href="#DejaVuSans-109"/>
      <use x="492.578125" xlink:href="#DejaVuSans-95"/>
      <use x="542.578125" xlink:href="#DejaVuSans-49"/>
     </g>
    </g>
   </g>
   <g id="patch_3">
    <path d="M 90 315.445496 
L 90 43.2 
" style="fill:none;stroke:#000000;stroke-linecap:square;stroke-linejoin:miter;stroke-width:0.8;"/>
   </g>
   <g id="patch_4">
    <path d="M 648 320.4 
L 648 43.2 
" style="fill:none;"/>
   </g>
   <g id="patch_5">
    <path d="M 92.514876 320.4 
L 648 320.4 
" style="fill:none;stroke:#000000;stroke-linecap:square;stroke-linejoin:miter;stroke-width:0.8;"/>
   </g>
   <g id="patch_6">
    <path d="M 90 43.2 
L 648 43.2 
" style="fill:none;"/>
   </g>
   <g id="text_17">
    <!-- sp|P01870|IGHG_RABIT -->
    <defs>
     <path d="M 2.34375 14.796875 
L 16.109375 16.890625 
Q 17 12.890625 19.671875 10.8125 
Q 22.359375 8.734375 27.203125 8.734375 
Q 32.515625 8.734375 35.203125 10.6875 
Q 37.015625 12.0625 37.015625 14.359375 
Q 37.015625 15.921875 36.03125 16.9375 
Q 35.015625 17.921875 31.453125 18.75 
Q 14.84375 22.40625 10.40625 25.4375 
Q 4.25 29.640625 4.25 37.109375 
Q 4.25 43.84375 9.5625 48.4375 
Q 14.890625 53.03125 26.078125 53.03125 
Q 36.71875 53.03125 41.890625 49.5625 
Q 47.078125 46.09375 49.03125 39.3125 
L 36.078125 36.921875 
Q 35.25 39.9375 32.921875 41.546875 
Q 30.609375 43.171875 26.3125 43.171875 
Q 20.90625 43.171875 18.5625 41.65625 
Q 17 40.578125 17 38.875 
Q 17 37.40625 18.359375 36.375 
Q 20.21875 35.015625 31.171875 32.515625 
Q 42.140625 30.03125 46.484375 26.421875 
Q 50.78125 22.75 50.78125 16.21875 
Q 50.78125 9.078125 44.828125 3.953125 
Q 38.875 -1.171875 27.203125 -1.171875 
Q 16.609375 -1.171875 10.421875 3.125 
Q 4.25 7.421875 2.34375 14.796875 
z
" id="Arial-BoldMT-115"/>
     <path d="M 6.78125 51.859375 
L 19.578125 51.859375 
L 19.578125 44.234375 
Q 22.078125 48.140625 26.3125 50.578125 
Q 30.5625 53.03125 35.75 53.03125 
Q 44.78125 53.03125 51.078125 45.953125 
Q 57.375 38.875 57.375 26.21875 
Q 57.375 13.234375 51.015625 6.03125 
Q 44.671875 -1.171875 35.640625 -1.171875 
Q 31.34375 -1.171875 27.84375 0.53125 
Q 24.359375 2.25 20.515625 6.390625 
L 20.515625 -19.734375 
L 6.78125 -19.734375 
z
M 20.359375 26.8125 
Q 20.359375 18.0625 23.828125 13.890625 
Q 27.296875 9.71875 32.28125 9.71875 
Q 37.0625 9.71875 40.234375 13.546875 
Q 43.40625 17.390625 43.40625 26.125 
Q 43.40625 34.28125 40.125 38.234375 
Q 36.859375 42.1875 32.03125 42.1875 
Q 27 42.1875 23.671875 38.296875 
Q 20.359375 34.421875 20.359375 26.8125 
z
" id="Arial-BoldMT-112"/>
     <path d="M 8.59375 -21.046875 
L 8.59375 72.796875 
L 19.484375 72.796875 
L 19.484375 -21.046875 
z
" id="Arial-BoldMT-124"/>
     <path d="M 7.28125 0 
L 7.28125 71.578125 
L 30.46875 71.578125 
Q 43.65625 71.578125 47.65625 70.515625 
Q 53.8125 68.890625 57.953125 63.5 
Q 62.109375 58.109375 62.109375 49.5625 
Q 62.109375 42.96875 59.71875 38.46875 
Q 57.328125 33.984375 53.640625 31.421875 
Q 49.953125 28.859375 46.140625 28.03125 
Q 40.96875 27 31.15625 27 
L 21.734375 27 
L 21.734375 0 
z
M 21.734375 59.46875 
L 21.734375 39.15625 
L 29.640625 39.15625 
Q 38.1875 39.15625 41.0625 40.28125 
Q 43.953125 41.40625 45.578125 43.796875 
Q 47.21875 46.1875 47.21875 49.359375 
Q 47.21875 53.265625 44.921875 55.796875 
Q 42.625 58.34375 39.109375 58.984375 
Q 36.53125 59.46875 28.71875 59.46875 
z
" id="Arial-BoldMT-80"/>
     <path d="M 27.4375 71.875 
Q 37.84375 71.875 43.703125 64.453125 
Q 50.6875 55.671875 50.6875 35.296875 
Q 50.6875 14.984375 43.65625 6.109375 
Q 37.84375 -1.21875 27.4375 -1.21875 
Q 17 -1.21875 10.59375 6.8125 
Q 4.203125 14.84375 4.203125 35.453125 
Q 4.203125 55.671875 11.234375 64.546875 
Q 17.046875 71.875 27.4375 71.875 
z
M 27.4375 60.5 
Q 24.953125 60.5 23 58.90625 
Q 21.046875 57.328125 19.96875 53.21875 
Q 18.5625 47.90625 18.5625 35.296875 
Q 18.5625 22.703125 19.828125 17.984375 
Q 21.09375 13.28125 23.015625 11.71875 
Q 24.953125 10.15625 27.4375 10.15625 
Q 29.9375 10.15625 31.890625 11.734375 
Q 33.84375 13.328125 34.90625 17.4375 
Q 36.328125 22.703125 36.328125 35.296875 
Q 36.328125 47.90625 35.0625 52.609375 
Q 33.796875 57.328125 31.859375 58.90625 
Q 29.9375 60.5 27.4375 60.5 
z
" id="Arial-BoldMT-48"/>
     <path d="M 39.359375 0 
L 25.640625 0 
L 25.640625 51.703125 
Q 18.109375 44.671875 7.90625 41.3125 
L 7.90625 53.765625 
Q 13.28125 55.515625 19.578125 60.421875 
Q 25.875 65.328125 28.21875 71.875 
L 39.359375 71.875 
z
" id="Arial-BoldMT-49"/>
     <path d="M 16.015625 38.625 
Q 10.6875 40.875 8.265625 44.796875 
Q 5.859375 48.734375 5.859375 53.421875 
Q 5.859375 61.421875 11.453125 66.640625 
Q 17.046875 71.875 27.34375 71.875 
Q 37.546875 71.875 43.1875 66.640625 
Q 48.828125 61.421875 48.828125 53.421875 
Q 48.828125 48.4375 46.234375 44.546875 
Q 43.65625 40.671875 38.96875 38.625 
Q 44.921875 36.234375 48.015625 31.640625 
Q 51.125 27.046875 51.125 21.046875 
Q 51.125 11.140625 44.796875 4.9375 
Q 38.484375 -1.265625 27.984375 -1.265625 
Q 18.21875 -1.265625 11.71875 3.859375 
Q 4.046875 9.90625 4.046875 20.453125 
Q 4.046875 26.265625 6.921875 31.125 
Q 9.8125 35.984375 16.015625 38.625 
z
M 18.84375 52.4375 
Q 18.84375 48.34375 21.15625 46.046875 
Q 23.484375 43.75 27.34375 43.75 
Q 31.25 43.75 33.59375 46.0625 
Q 35.9375 48.390625 35.9375 52.484375 
Q 35.9375 56.34375 33.609375 58.65625 
Q 31.296875 60.984375 27.484375 60.984375 
Q 23.53125 60.984375 21.1875 58.640625 
Q 18.84375 56.296875 18.84375 52.4375 
z
M 17.578125 21.78125 
Q 17.578125 16.109375 20.484375 12.9375 
Q 23.390625 9.765625 27.734375 9.765625 
Q 31.984375 9.765625 34.765625 12.8125 
Q 37.546875 15.875 37.546875 21.625 
Q 37.546875 26.65625 34.71875 29.703125 
Q 31.890625 32.765625 27.546875 32.765625 
Q 22.515625 32.765625 20.046875 29.296875 
Q 17.578125 25.828125 17.578125 21.78125 
z
" id="Arial-BoldMT-56"/>
     <path d="M 4.25 57.859375 
L 4.25 70.609375 
L 51.171875 70.609375 
L 51.171875 60.640625 
Q 45.359375 54.9375 39.34375 44.234375 
Q 33.34375 33.546875 30.1875 21.5 
Q 27.046875 9.46875 27.09375 0 
L 13.875 0 
Q 14.203125 14.84375 19.984375 30.265625 
Q 25.78125 45.703125 35.453125 57.859375 
z
" id="Arial-BoldMT-55"/>
     <path d="M 6.84375 0 
L 6.84375 71.578125 
L 21.296875 71.578125 
L 21.296875 0 
z
" id="Arial-BoldMT-73"/>
     <path d="M 40.578125 26.3125 
L 40.578125 38.375 
L 71.734375 38.375 
L 71.734375 9.859375 
Q 67.1875 5.46875 58.5625 2.125 
Q 49.953125 -1.21875 41.109375 -1.21875 
Q 29.890625 -1.21875 21.53125 3.484375 
Q 13.1875 8.203125 8.984375 16.96875 
Q 4.78125 25.734375 4.78125 36.03125 
Q 4.78125 47.21875 9.46875 55.90625 
Q 14.15625 64.59375 23.1875 69.234375 
Q 30.078125 72.796875 40.328125 72.796875 
Q 53.65625 72.796875 61.15625 67.203125 
Q 68.65625 61.625 70.796875 51.765625 
L 56.453125 49.078125 
Q 54.9375 54.34375 50.75 57.390625 
Q 46.578125 60.453125 40.328125 60.453125 
Q 30.859375 60.453125 25.265625 54.4375 
Q 19.671875 48.4375 19.671875 36.625 
Q 19.671875 23.875 25.328125 17.5 
Q 31 11.140625 40.1875 11.140625 
Q 44.734375 11.140625 49.296875 12.921875 
Q 53.859375 14.703125 57.125 17.234375 
L 57.125 26.3125 
z
" id="Arial-BoldMT-71"/>
     <path d="M 7.328125 0 
L 7.328125 71.578125 
L 21.78125 71.578125 
L 21.78125 43.40625 
L 50.09375 43.40625 
L 50.09375 71.578125 
L 64.546875 71.578125 
L 64.546875 0 
L 50.09375 0 
L 50.09375 31.296875 
L 21.78125 31.296875 
L 21.78125 0 
z
" id="Arial-BoldMT-72"/>
     <path d="M -0.921875 -19.78125 
L -0.921875 -10.890625 
L 56.109375 -10.890625 
L 56.109375 -19.78125 
z
" id="Arial-BoldMT-95"/>
     <path d="M 7.328125 0 
L 7.328125 71.578125 
L 37.75 71.578125 
Q 49.21875 71.578125 54.421875 69.640625 
Q 59.625 67.71875 62.75 62.78125 
Q 65.875 57.859375 65.875 51.515625 
Q 65.875 43.453125 61.125 38.203125 
Q 56.390625 32.953125 46.96875 31.59375 
Q 51.65625 28.859375 54.703125 25.578125 
Q 57.765625 22.3125 62.9375 13.96875 
L 71.6875 0 
L 54.390625 0 
L 43.953125 15.578125 
Q 38.375 23.921875 36.328125 26.09375 
Q 34.28125 28.265625 31.984375 29.078125 
Q 29.6875 29.890625 24.703125 29.890625 
L 21.78125 29.890625 
L 21.78125 0 
z
M 21.78125 41.3125 
L 32.46875 41.3125 
Q 42.875 41.3125 45.453125 42.1875 
Q 48.046875 43.0625 49.515625 45.203125 
Q 50.984375 47.359375 50.984375 50.59375 
Q 50.984375 54.203125 49.046875 56.421875 
Q 47.125 58.640625 43.609375 59.234375 
Q 41.84375 59.46875 33.0625 59.46875 
L 21.78125 59.46875 
z
" id="Arial-BoldMT-82"/>
     <path d="M 71.828125 0 
L 56.109375 0 
L 49.859375 16.265625 
L 21.234375 16.265625 
L 15.328125 0 
L 0 0 
L 27.875 71.578125 
L 43.171875 71.578125 
z
M 45.21875 28.328125 
L 35.359375 54.890625 
L 25.6875 28.328125 
z
" id="Arial-BoldMT-65"/>
     <path d="M 7.328125 71.578125 
L 35.9375 71.578125 
Q 44.4375 71.578125 48.609375 70.875 
Q 52.78125 70.171875 56.078125 67.921875 
Q 59.375 65.671875 61.5625 61.9375 
Q 63.765625 58.203125 63.765625 53.5625 
Q 63.765625 48.53125 61.046875 44.328125 
Q 58.34375 40.140625 53.71875 38.03125 
Q 60.25 36.140625 63.765625 31.546875 
Q 67.28125 26.953125 67.28125 20.75 
Q 67.28125 15.875 65.015625 11.25 
Q 62.75 6.640625 58.8125 3.875 
Q 54.890625 1.125 49.125 0.484375 
Q 45.515625 0.09375 31.6875 0 
L 7.328125 0 
z
M 21.78125 59.671875 
L 21.78125 43.109375 
L 31.25 43.109375 
Q 39.703125 43.109375 41.75 43.359375 
Q 45.453125 43.796875 47.578125 45.921875 
Q 49.703125 48.046875 49.703125 51.515625 
Q 49.703125 54.828125 47.875 56.90625 
Q 46.046875 58.984375 42.4375 59.421875 
Q 40.28125 59.671875 30.078125 59.671875 
z
M 21.78125 31.203125 
L 21.78125 12.0625 
L 35.15625 12.0625 
Q 42.96875 12.0625 45.0625 12.5 
Q 48.296875 13.09375 50.3125 15.359375 
Q 52.34375 17.625 52.34375 21.4375 
Q 52.34375 24.65625 50.78125 26.90625 
Q 49.21875 29.15625 46.265625 30.171875 
Q 43.3125 31.203125 33.453125 31.203125 
z
" id="Arial-BoldMT-66"/>
     <path d="M 23.390625 0 
L 23.390625 59.46875 
L 2.15625 59.46875 
L 2.15625 71.578125 
L 59.03125 71.578125 
L 59.03125 59.46875 
L 37.84375 59.46875 
L 37.84375 0 
z
" id="Arial-BoldMT-84"/>
    </defs>
    <g transform="translate(541.274779 53.670844)scale(0.07 -0.07)">
     <use xlink:href="#Arial-BoldMT-115"/>
     <use x="55.615234" xlink:href="#Arial-BoldMT-112"/>
     <use x="116.699219" xlink:href="#Arial-BoldMT-124"/>
     <use x="144.677734" xlink:href="#Arial-BoldMT-80"/>
     <use x="211.376953" xlink:href="#Arial-BoldMT-48"/>
     <use x="266.992188" xlink:href="#Arial-BoldMT-49"/>
     <use x="322.607422" xlink:href="#Arial-BoldMT-56"/>
     <use x="378.222656" xlink:href="#Arial-BoldMT-55"/>
     <use x="433.837891" xlink:href="#Arial-BoldMT-48"/>
     <use x="489.453125" xlink:href="#Arial-BoldMT-124"/>
     <use x="517.431641" xlink:href="#Arial-BoldMT-73"/>
     <use x="545.214844" xlink:href="#Arial-BoldMT-71"/>
     <use x="622.998047" xlink:href="#Arial-BoldMT-72"/>
     <use x="695.214844" xlink:href="#Arial-BoldMT-71"/>
     <use x="772.998047" xlink:href="#Arial-BoldMT-95"/>
     <use x="828.613281" xlink:href="#Arial-BoldMT-82"/>
     <use x="900.830078" xlink:href="#Arial-BoldMT-65"/>
     <use x="973.046875" xlink:href="#Arial-BoldMT-66"/>
     <use x="1045.263672" xlink:href="#Arial-BoldMT-73"/>
     <use x="1073.046875" xlink:href="#Arial-BoldMT-84"/>
    </g>
   </g>
   <g id="text_18">
    <!-- Tb927.11.3600 -->
    <defs>
     <path d="M 6.59375 0 
L 6.59375 71.578125 
L 20.3125 71.578125 
L 20.3125 45.796875 
Q 26.65625 53.03125 35.359375 53.03125 
Q 44.828125 53.03125 51.03125 46.171875 
Q 57.234375 39.3125 57.234375 26.46875 
Q 57.234375 13.1875 50.90625 6 
Q 44.578125 -1.171875 35.546875 -1.171875 
Q 31.109375 -1.171875 26.78125 1.046875 
Q 22.46875 3.265625 19.34375 7.625 
L 19.34375 0 
z
M 20.21875 27.046875 
Q 20.21875 19 22.75 15.140625 
Q 26.3125 9.671875 32.234375 9.671875 
Q 36.765625 9.671875 39.96875 13.546875 
Q 43.171875 17.4375 43.171875 25.78125 
Q 43.171875 34.671875 39.9375 38.59375 
Q 36.71875 42.53125 31.6875 42.53125 
Q 26.765625 42.53125 23.484375 38.6875 
Q 20.21875 34.859375 20.21875 27.046875 
z
" id="Arial-BoldMT-98"/>
     <path d="M 4.546875 16.546875 
L 17.828125 18.015625 
Q 18.3125 13.96875 20.359375 12.015625 
Q 22.40625 10.0625 25.78125 10.0625 
Q 30.03125 10.0625 33 13.96875 
Q 35.984375 17.875 36.8125 30.171875 
Q 31.640625 24.171875 23.875 24.171875 
Q 15.4375 24.171875 9.296875 30.6875 
Q 3.171875 37.203125 3.171875 47.65625 
Q 3.171875 58.546875 9.640625 65.203125 
Q 16.109375 71.875 26.125 71.875 
Q 37.015625 71.875 44 63.453125 
Q 50.984375 55.03125 50.984375 35.75 
Q 50.984375 16.109375 43.703125 7.421875 
Q 36.421875 -1.265625 24.75 -1.265625 
Q 16.359375 -1.265625 11.171875 3.203125 
Q 6 7.671875 4.546875 16.546875 
z
M 35.59375 46.53125 
Q 35.59375 53.171875 32.546875 56.828125 
Q 29.5 60.5 25.484375 60.5 
Q 21.6875 60.5 19.171875 57.5 
Q 16.65625 54.5 16.65625 47.65625 
Q 16.65625 40.71875 19.390625 37.46875 
Q 22.125 34.234375 26.21875 34.234375 
Q 30.171875 34.234375 32.875 37.359375 
Q 35.59375 40.484375 35.59375 46.53125 
z
" id="Arial-BoldMT-57"/>
     <path d="M 50.59375 12.75 
L 50.59375 0 
L 2.484375 0 
Q 3.265625 7.234375 7.171875 13.703125 
Q 11.078125 20.171875 22.609375 30.859375 
Q 31.890625 39.5 33.984375 42.578125 
Q 36.8125 46.828125 36.8125 50.984375 
Q 36.8125 55.5625 34.34375 58.03125 
Q 31.890625 60.5 27.546875 60.5 
Q 23.25 60.5 20.703125 57.90625 
Q 18.171875 55.328125 17.78125 49.3125 
L 4.109375 50.6875 
Q 5.328125 62.015625 11.765625 66.9375 
Q 18.21875 71.875 27.875 71.875 
Q 38.484375 71.875 44.53125 66.15625 
Q 50.59375 60.453125 50.59375 51.953125 
Q 50.59375 47.125 48.859375 42.75 
Q 47.125 38.375 43.359375 33.59375 
Q 40.875 30.421875 34.375 24.453125 
Q 27.875 18.5 26.140625 16.546875 
Q 24.421875 14.59375 23.34375 12.75 
z
" id="Arial-BoldMT-50"/>
     <path d="M 7.171875 0 
L 7.171875 13.71875 
L 20.90625 13.71875 
L 20.90625 0 
z
" id="Arial-BoldMT-46"/>
     <path d="M 3.765625 19 
L 17.046875 20.609375 
Q 17.671875 15.53125 20.453125 12.84375 
Q 23.25 10.15625 27.203125 10.15625 
Q 31.453125 10.15625 34.34375 13.375 
Q 37.25 16.609375 37.25 22.078125 
Q 37.25 27.25 34.46875 30.265625 
Q 31.6875 33.296875 27.6875 33.296875 
Q 25.046875 33.296875 21.390625 32.28125 
L 22.90625 43.453125 
Q 28.46875 43.3125 31.390625 45.875 
Q 34.328125 48.4375 34.328125 52.6875 
Q 34.328125 56.296875 32.171875 58.4375 
Q 30.03125 60.59375 26.46875 60.59375 
Q 22.953125 60.59375 20.453125 58.15625 
Q 17.96875 55.71875 17.4375 51.03125 
L 4.78125 53.171875 
Q 6.109375 59.671875 8.765625 63.546875 
Q 11.421875 67.4375 16.1875 69.65625 
Q 20.953125 71.875 26.859375 71.875 
Q 36.96875 71.875 43.0625 65.4375 
Q 48.09375 60.15625 48.09375 53.515625 
Q 48.09375 44.09375 37.796875 38.484375 
Q 43.953125 37.15625 47.625 32.5625 
Q 51.3125 27.984375 51.3125 21.484375 
Q 51.3125 12.0625 44.421875 5.421875 
Q 37.546875 -1.21875 27.296875 -1.21875 
Q 17.578125 -1.21875 11.171875 4.375 
Q 4.78125 9.96875 3.765625 19 
z
" id="Arial-BoldMT-51"/>
     <path d="M 50.734375 54.046875 
L 37.453125 52.59375 
Q 36.96875 56.6875 34.90625 58.640625 
Q 32.859375 60.59375 29.59375 60.59375 
Q 25.25 60.59375 22.234375 56.6875 
Q 19.234375 52.78125 18.453125 40.4375 
Q 23.578125 46.484375 31.203125 46.484375 
Q 39.796875 46.484375 45.921875 39.9375 
Q 52.046875 33.40625 52.046875 23.046875 
Q 52.046875 12.0625 45.59375 5.421875 
Q 39.15625 -1.21875 29.046875 -1.21875 
Q 18.21875 -1.21875 11.234375 7.203125 
Q 4.25 15.625 4.25 34.8125 
Q 4.25 54.5 11.515625 63.1875 
Q 18.796875 71.875 30.421875 71.875 
Q 38.578125 71.875 43.921875 67.3125 
Q 49.265625 62.75 50.734375 54.046875 
z
M 19.625 24.125 
Q 19.625 17.4375 22.703125 13.796875 
Q 25.78125 10.15625 29.734375 10.15625 
Q 33.546875 10.15625 36.078125 13.125 
Q 38.625 16.109375 38.625 22.90625 
Q 38.625 29.890625 35.890625 33.125 
Q 33.15625 36.375 29.046875 36.375 
Q 25.09375 36.375 22.359375 33.265625 
Q 19.625 30.171875 19.625 24.125 
z
" id="Arial-BoldMT-54"/>
    </defs>
    <g transform="translate(283.199722 213.606164)scale(0.07 -0.07)">
     <use xlink:href="#Arial-BoldMT-84"/>
     <use x="61.083984" xlink:href="#Arial-BoldMT-98"/>
     <use x="122.167969" xlink:href="#Arial-BoldMT-57"/>
     <use x="177.783203" xlink:href="#Arial-BoldMT-50"/>
     <use x="233.398438" xlink:href="#Arial-BoldMT-55"/>
     <use x="289.013672" xlink:href="#Arial-BoldMT-46"/>
     <use x="316.796875" xlink:href="#Arial-BoldMT-49"/>
     <use x="366.912109" xlink:href="#Arial-BoldMT-49"/>
     <use x="422.527344" xlink:href="#Arial-BoldMT-46"/>
     <use x="450.310547" xlink:href="#Arial-BoldMT-51"/>
     <use x="505.925781" xlink:href="#Arial-BoldMT-54"/>
     <use x="561.541016" xlink:href="#Arial-BoldMT-48"/>
     <use x="617.15625" xlink:href="#Arial-BoldMT-48"/>
    </g>
   </g>
   <g id="text_19">
    <!-- Tb927.1.3950 -->
    <defs>
     <path d="M 4.4375 18.40625 
L 18.109375 19.828125 
Q 18.703125 15.1875 21.578125 12.46875 
Q 24.46875 9.765625 28.21875 9.765625 
Q 32.515625 9.765625 35.5 13.25 
Q 38.484375 16.75 38.484375 23.78125 
Q 38.484375 30.375 35.515625 33.671875 
Q 32.5625 36.96875 27.828125 36.96875 
Q 21.921875 36.96875 17.234375 31.734375 
L 6.109375 33.34375 
L 13.140625 70.609375 
L 49.421875 70.609375 
L 49.421875 57.765625 
L 23.53125 57.765625 
L 21.390625 45.609375 
Q 25.984375 47.90625 30.765625 47.90625 
Q 39.890625 47.90625 46.234375 41.265625 
Q 52.59375 34.625 52.59375 24.03125 
Q 52.59375 15.1875 47.46875 8.25 
Q 40.484375 -1.21875 28.078125 -1.21875 
Q 18.171875 -1.21875 11.921875 4.09375 
Q 5.671875 9.421875 4.4375 18.40625 
z
" id="Arial-BoldMT-53"/>
    </defs>
    <g transform="translate(388.340727 215.116161)scale(0.07 -0.07)">
     <use xlink:href="#Arial-BoldMT-84"/>
     <use x="61.083984" xlink:href="#Arial-BoldMT-98"/>
     <use x="122.167969" xlink:href="#Arial-BoldMT-57"/>
     <use x="177.783203" xlink:href="#Arial-BoldMT-50"/>
     <use x="233.398438" xlink:href="#Arial-BoldMT-55"/>
     <use x="289.013672" xlink:href="#Arial-BoldMT-46"/>
     <use x="316.796875" xlink:href="#Arial-BoldMT-49"/>
     <use x="372.412109" xlink:href="#Arial-BoldMT-46"/>
     <use x="400.195312" xlink:href="#Arial-BoldMT-51"/>
     <use x="455.810547" xlink:href="#Arial-BoldMT-57"/>
     <use x="511.425781" xlink:href="#Arial-BoldMT-53"/>
     <use x="567.041016" xlink:href="#Arial-BoldMT-48"/>
    </g>
   </g>
   <g id="text_20">
    <!-- Tb927.10.14140 -->
    <defs>
     <path d="M 31.15625 0 
L 31.15625 14.40625 
L 1.859375 14.40625 
L 1.859375 26.421875 
L 32.90625 71.875 
L 44.4375 71.875 
L 44.4375 26.46875 
L 53.328125 26.46875 
L 53.328125 14.40625 
L 44.4375 14.40625 
L 44.4375 0 
z
M 31.15625 26.46875 
L 31.15625 50.921875 
L 14.703125 26.46875 
z
" id="Arial-BoldMT-52"/>
    </defs>
    <g transform="translate(259.707051 204.716585)scale(0.07 -0.07)">
     <use xlink:href="#Arial-BoldMT-84"/>
     <use x="61.083984" xlink:href="#Arial-BoldMT-98"/>
     <use x="122.167969" xlink:href="#Arial-BoldMT-57"/>
     <use x="177.783203" xlink:href="#Arial-BoldMT-50"/>
     <use x="233.398438" xlink:href="#Arial-BoldMT-55"/>
     <use x="289.013672" xlink:href="#Arial-BoldMT-46"/>
     <use x="316.796875" xlink:href="#Arial-BoldMT-49"/>
     <use x="372.412109" xlink:href="#Arial-BoldMT-48"/>
     <use x="428.027344" xlink:href="#Arial-BoldMT-46"/>
     <use x="455.810547" xlink:href="#Arial-BoldMT-49"/>
     <use x="511.425781" xlink:href="#Arial-BoldMT-52"/>
     <use x="567.041016" xlink:href="#Arial-BoldMT-49"/>
     <use x="622.65625" xlink:href="#Arial-BoldMT-52"/>
     <use x="678.271484" xlink:href="#Arial-BoldMT-48"/>
    </g>
   </g>
   <g id="text_21">
    <!-- Tb927.9.15360 -->
    <g transform="translate(264.906235 244.484613)scale(0.07 -0.07)">
     <use xlink:href="#Arial-BoldMT-84"/>
     <use x="61.083984" xlink:href="#Arial-BoldMT-98"/>
     <use x="122.167969" xlink:href="#Arial-BoldMT-57"/>
     <use x="177.783203" xlink:href="#Arial-BoldMT-50"/>
     <use x="233.398438" xlink:href="#Arial-BoldMT-55"/>
     <use x="289.013672" xlink:href="#Arial-BoldMT-46"/>
     <use x="316.796875" xlink:href="#Arial-BoldMT-57"/>
     <use x="372.412109" xlink:href="#Arial-BoldMT-46"/>
     <use x="400.195312" xlink:href="#Arial-BoldMT-49"/>
     <use x="455.810547" xlink:href="#Arial-BoldMT-53"/>
     <use x="511.425781" xlink:href="#Arial-BoldMT-51"/>
     <use x="567.041016" xlink:href="#Arial-BoldMT-54"/>
     <use x="622.65625" xlink:href="#Arial-BoldMT-48"/>
    </g>
   </g>
   <g id="text_22">
    <!-- Tb927.10.7570 -->
    <g transform="translate(315.899279 197.588613)scale(0.07 -0.07)">
     <use xlink:href="#Arial-BoldMT-84"/>
     <use x="61.083984" xlink:href="#Arial-BoldMT-98"/>
     <use x="122.167969" xlink:href="#Arial-BoldMT-57"/>
     <use x="177.783203" xlink:href="#Arial-BoldMT-50"/>
     <use x="233.398438" xlink:href="#Arial-BoldMT-55"/>
     <use x="289.013672" xlink:href="#Arial-BoldMT-46"/>
     <use x="316.796875" xlink:href="#Arial-BoldMT-49"/>
     <use x="372.412109" xlink:href="#Arial-BoldMT-48"/>
     <use x="428.027344" xlink:href="#Arial-BoldMT-46"/>
     <use x="455.810547" xlink:href="#Arial-BoldMT-55"/>
     <use x="511.425781" xlink:href="#Arial-BoldMT-53"/>
     <use x="567.041016" xlink:href="#Arial-BoldMT-55"/>
     <use x="622.65625" xlink:href="#Arial-BoldMT-48"/>
    </g>
   </g>
   <g id="text_23">
    <!-- Tb927.3.910 -->
    <g transform="translate(346.452772 208.078341)scale(0.07 -0.07)">
     <use xlink:href="#Arial-BoldMT-84"/>
     <use x="61.083984" xlink:href="#Arial-BoldMT-98"/>
     <use x="122.167969" xlink:href="#Arial-BoldMT-57"/>
     <use x="177.783203" xlink:href="#Arial-BoldMT-50"/>
     <use x="233.398438" xlink:href="#Arial-BoldMT-55"/>
     <use x="289.013672" xlink:href="#Arial-BoldMT-46"/>
     <use x="316.796875" xlink:href="#Arial-BoldMT-51"/>
     <use x="372.412109" xlink:href="#Arial-BoldMT-46"/>
     <use x="400.195312" xlink:href="#Arial-BoldMT-57"/>
     <use x="455.810547" xlink:href="#Arial-BoldMT-49"/>
     <use x="511.425781" xlink:href="#Arial-BoldMT-48"/>
    </g>
   </g>
   <g id="text_24">
    <!-- Tb927.4.1860 -->
    <g transform="translate(334.526222 234.257986)scale(0.07 -0.07)">
     <use xlink:href="#Arial-BoldMT-84"/>
     <use x="61.083984" xlink:href="#Arial-BoldMT-98"/>
     <use x="122.167969" xlink:href="#Arial-BoldMT-57"/>
     <use x="177.783203" xlink:href="#Arial-BoldMT-50"/>
     <use x="233.398438" xlink:href="#Arial-BoldMT-55"/>
     <use x="289.013672" xlink:href="#Arial-BoldMT-46"/>
     <use x="316.796875" xlink:href="#Arial-BoldMT-52"/>
     <use x="372.412109" xlink:href="#Arial-BoldMT-46"/>
     <use x="400.195312" xlink:href="#Arial-BoldMT-49"/>
     <use x="455.810547" xlink:href="#Arial-BoldMT-56"/>
     <use x="511.425781" xlink:href="#Arial-BoldMT-54"/>
     <use x="567.041016" xlink:href="#Arial-BoldMT-48"/>
    </g>
   </g>
   <g id="text_25">
    <!-- Tb927.5.1610 -->
    <g transform="translate(261.282328 234.762161)scale(0.07 -0.07)">
     <use xlink:href="#Arial-BoldMT-84"/>
     <use x="61.083984" xlink:href="#Arial-BoldMT-98"/>
     <use x="122.167969" xlink:href="#Arial-BoldMT-57"/>
     <use x="177.783203" xlink:href="#Arial-BoldMT-50"/>
     <use x="233.398438" xlink:href="#Arial-BoldMT-55"/>
     <use x="289.013672" xlink:href="#Arial-BoldMT-46"/>
     <use x="316.796875" xlink:href="#Arial-BoldMT-53"/>
     <use x="372.412109" xlink:href="#Arial-BoldMT-46"/>
     <use x="400.195312" xlink:href="#Arial-BoldMT-49"/>
     <use x="455.810547" xlink:href="#Arial-BoldMT-54"/>
     <use x="511.425781" xlink:href="#Arial-BoldMT-49"/>
     <use x="567.041016" xlink:href="#Arial-BoldMT-48"/>
    </g>
   </g>
   <g id="text_26">
    <!-- Tb927.5.520 -->
    <g transform="translate(384.388483 195.607637)scale(0.07 -0.07)">
     <use xlink:href="#Arial-BoldMT-84"/>
     <use x="61.083984" xlink:href="#Arial-BoldMT-98"/>
     <use x="122.167969" xlink:href="#Arial-BoldMT-57"/>
     <use x="177.783203" xlink:href="#Arial-BoldMT-50"/>
     <use x="233.398438" xlink:href="#Arial-BoldMT-55"/>
     <use x="289.013672" xlink:href="#Arial-BoldMT-46"/>
     <use x="316.796875" xlink:href="#Arial-BoldMT-53"/>
     <use x="372.412109" xlink:href="#Arial-BoldMT-46"/>
     <use x="400.195312" xlink:href="#Arial-BoldMT-53"/>
     <use x="455.810547" xlink:href="#Arial-BoldMT-50"/>
     <use x="511.425781" xlink:href="#Arial-BoldMT-48"/>
    </g>
   </g>
   <g id="text_27">
    <!-- Tb927.8.5370 -->
    <g transform="translate(334.99557 219.888114)scale(0.07 -0.07)">
     <use xlink:href="#Arial-BoldMT-84"/>
     <use x="61.083984" xlink:href="#Arial-BoldMT-98"/>
     <use x="122.167969" xlink:href="#Arial-BoldMT-57"/>
     <use x="177.783203" xlink:href="#Arial-BoldMT-50"/>
     <use x="233.398438" xlink:href="#Arial-BoldMT-55"/>
     <use x="289.013672" xlink:href="#Arial-BoldMT-46"/>
     <use x="316.796875" xlink:href="#Arial-BoldMT-56"/>
     <use x="372.412109" xlink:href="#Arial-BoldMT-46"/>
     <use x="400.195312" xlink:href="#Arial-BoldMT-53"/>
     <use x="455.810547" xlink:href="#Arial-BoldMT-51"/>
     <use x="511.425781" xlink:href="#Arial-BoldMT-55"/>
     <use x="567.041016" xlink:href="#Arial-BoldMT-48"/>
    </g>
   </g>
   <g id="text_28">
    <!-- Tb927.9.12240 -->
    <g transform="translate(319.821303 241.604369)scale(0.07 -0.07)">
     <use xlink:href="#Arial-BoldMT-84"/>
     <use x="61.083984" xlink:href="#Arial-BoldMT-98"/>
     <use x="122.167969" xlink:href="#Arial-BoldMT-57"/>
     <use x="177.783203" xlink:href="#Arial-BoldMT-50"/>
     <use x="233.398438" xlink:href="#Arial-BoldMT-55"/>
     <use x="289.013672" xlink:href="#Arial-BoldMT-46"/>
     <use x="316.796875" xlink:href="#Arial-BoldMT-57"/>
     <use x="372.412109" xlink:href="#Arial-BoldMT-46"/>
     <use x="400.195312" xlink:href="#Arial-BoldMT-49"/>
     <use x="455.810547" xlink:href="#Arial-BoldMT-50"/>
     <use x="511.425781" xlink:href="#Arial-BoldMT-50"/>
     <use x="567.041016" xlink:href="#Arial-BoldMT-52"/>
     <use x="622.65625" xlink:href="#Arial-BoldMT-48"/>
    </g>
   </g>
   <g id="text_29">
    <!-- Tb927.9.7110 -->
    <g transform="translate(287.818328 226.85994)scale(0.07 -0.07)">
     <use xlink:href="#Arial-BoldMT-84"/>
     <use x="61.083984" xlink:href="#Arial-BoldMT-98"/>
     <use x="122.167969" xlink:href="#Arial-BoldMT-57"/>
     <use x="177.783203" xlink:href="#Arial-BoldMT-50"/>
     <use x="233.398438" xlink:href="#Arial-BoldMT-55"/>
     <use x="289.013672" xlink:href="#Arial-BoldMT-46"/>
     <use x="316.796875" xlink:href="#Arial-BoldMT-57"/>
     <use x="372.412109" xlink:href="#Arial-BoldMT-46"/>
     <use x="400.195312" xlink:href="#Arial-BoldMT-55"/>
     <use x="455.810547" xlink:href="#Arial-BoldMT-49"/>
     <use x="505.925781" xlink:href="#Arial-BoldMT-49"/>
     <use x="561.541016" xlink:href="#Arial-BoldMT-48"/>
    </g>
   </g>
   <g id="patch_7">
    <path d="M 617.676583 55.332056 
Q 619.161127 55.472119 620.645671 55.612182 
" style="fill:none;stroke:#ff0000;stroke-linecap:round;stroke-width:0.8;"/>
   </g>
   <g id="patch_8">
    <path d="M 332.283826 209.748681 
Q 333.568641 209.643464 334.853455 209.538248 
" style="fill:none;stroke:#ff0000;stroke-linecap:round;stroke-width:0.8;"/>
   </g>
   <g id="patch_9">
    <path d="M 386.339843 213.216048 
Q 372.835847 213.14229 359.331851 213.068532 
" style="fill:none;stroke:#ff0000;stroke-linecap:round;stroke-width:0.8;"/>
   </g>
   <g id="patch_10">
    <path d="M 313.055021 206.186065 
Q 313.370322 206.224104 313.685623 206.262142 
" style="fill:none;stroke:#ff0000;stroke-linecap:round;stroke-width:0.8;"/>
   </g>
   <g id="patch_11">
    <path d="M 311.39394 239.164617 
Q 311.488995 239.149743 311.58405 239.134868 
" style="fill:none;stroke:#ff0000;stroke-linecap:round;stroke-width:0.8;"/>
   </g>
   <g id="patch_12">
    <path d="M 346.516502 200.029708 
Q 346.574966 200.066245 346.633431 200.102782 
" style="fill:none;stroke:#ff0000;stroke-linecap:round;stroke-width:0.8;"/>
   </g>
   <g id="patch_13">
    <path d="M 362.825936 209.458139 
Q 362.328214 209.928491 361.830492 210.398844 
" style="fill:none;stroke:#ff0000;stroke-linecap:round;stroke-width:0.8;"/>
   </g>
   <g id="patch_14">
    <path d="M 338.300146 228.851383 
Q 336.397859 228.466274 334.495573 228.081165 
" style="fill:none;stroke:#ff0000;stroke-linecap:round;stroke-width:0.8;"/>
   </g>
   <g id="patch_15">
    <path d="M 306.854036 235.530501 
Q 311.044685 235.994506 315.235335 236.45851 
" style="fill:none;stroke:#ff0000;stroke-linecap:round;stroke-width:0.8;"/>
   </g>
   <g id="patch_16">
    <path d="M 384.902559 197.356776 
Q 384.153443 197.496909 383.404327 197.637043 
" style="fill:none;stroke:#ff0000;stroke-linecap:round;stroke-width:0.8;"/>
   </g>
   <g id="patch_17">
    <path d="M 346.1802 221.967109 
Q 341.738382 223.624875 337.296564 225.282642 
" style="fill:none;stroke:#ff0000;stroke-linecap:round;stroke-width:0.8;"/>
   </g>
   <g id="patch_18">
    <path d="M 321.09058 236.280194 
Q 320.823423 236.237811 320.556267 236.195429 
" style="fill:none;stroke:#ff0000;stroke-linecap:round;stroke-width:0.8;"/>
   </g>
   <g id="patch_19">
    <path d="M 331.014668 227.348471 
Q 331.895588 227.444395 332.776507 227.540319 
" style="fill:none;stroke:#ff0000;stroke-linecap:round;stroke-width:0.8;"/>
   </g>
   <g id="legend_1">
    <g id="patch_20">
     <path d="M 534.4 111.64 
L 538.4 111.64 
Q 540.4 111.64 540.4 109.64 
L 540.4 105.64 
Q 540.4 103.64 538.4 103.64 
L 534.4 103.64 
Q 532.4 103.64 532.4 105.64 
L 532.4 109.64 
Q 532.4 111.64 534.4 111.64 
z
" style="fill:#ffffff;opacity:0.8;stroke:#cccccc;stroke-linejoin:miter;"/>
    </g>
   </g>
   <g id="PathCollection_2">
    <defs>
     <path d="M 0 1.118034 
C 0.296506 1.118034 0.580908 1.000231 0.790569 0.790569 
C 1.000231 0.580908 1.118034 0.296506 1.118034 0 
C 1.118034 -0.296506 1.000231 -0.580908 0.790569 -0.790569 
C 0.580908 -1.000231 0.296506 -1.118034 0 -1.118034 
C -0.296506 -1.118034 -0.580908 -1.000231 -0.790569 -0.790569 
C -1.000231 -0.580908 -1.118034 -0.296506 -1.118034 0 
C -1.118034 0.296506 -1.000231 0.580908 -0.790569 0.790569 
C -0.580908 1.000231 -0.296506 1.118034 0 1.118034 
z
" id="md4ab2bc79b" style="stroke:#ff0000;"/>
    </defs>
    <g clip-path="url(#pe51928f4aa)">
     <use style="fill:#ff0000;stroke:#ff0000;" x="622.636364" xlink:href="#md4ab2bc79b" y="55.8"/>
     <use style="fill:#ff0000;stroke:#ff0000;" x="336.844139" xlink:href="#md4ab2bc79b" y="209.375227"/>
     <use style="fill:#ff0000;stroke:#ff0000;" x="357.331127" xlink:href="#md4ab2bc79b" y="213.057604"/>
     <use style="fill:#ff0000;stroke:#ff0000;" x="313.685623" xlink:href="#md4ab2bc79b" y="206.262142"/>
     <use style="fill:#ff0000;stroke:#ff0000;" x="313.556968" xlink:href="#md4ab2bc79b" y="238.826145"/>
     <use style="fill:#ff0000;stroke:#ff0000;" x="346.633431" xlink:href="#md4ab2bc79b" y="200.102782"/>
     <use style="fill:#ff0000;stroke:#ff0000;" x="361.830492" xlink:href="#md4ab2bc79b" y="210.398844"/>
     <use style="fill:#ff0000;stroke:#ff0000;" x="332.53274" xlink:href="#md4ab2bc79b" y="227.683799"/>
     <use style="fill:#ff0000;stroke:#ff0000;" x="317.222445" xlink:href="#md4ab2bc79b" y="236.67853"/>
     <use style="fill:#ff0000;stroke:#ff0000;" x="383.404327" xlink:href="#md4ab2bc79b" y="197.637043"/>
     <use style="fill:#ff0000;stroke:#ff0000;" x="335.424252" xlink:href="#md4ab2bc79b" y="225.981423"/>
     <use style="fill:#ff0000;stroke:#ff0000;" x="318.580777" xlink:href="#md4ab2bc79b" y="235.882032"/>
     <use style="fill:#ff0000;stroke:#ff0000;" x="332.776507" xlink:href="#md4ab2bc79b" y="227.540319"/>
    </g>
   </g>
  </g>
 </g>
 <defs>
  <clipPath id="pe51928f4aa">
   <rect height="277.2" width="558" x="90" y="43.2"/>
  </clipPath>
 </defs>
</svg>
